<svg width="151" height="149" viewBox="0 0 151 149" fill="none" xmlns="http://www.w3.org/2000/svg">
<path d="M26.7371 1.46301H124.263C138.489 1.46301 150 13.0134 150 27.3043V121.426C150 135.717 138.489 147.268 124.263 147.268H26.7371C12.5111 147.268 1 135.717 1 121.426V27.3043C1 13.0134 12.5111 1.46301 26.7371 1.46301Z" fill="#001E36" stroke="#31A8FF" stroke-width="2"/>
<path d="M79.2694 104.931H39.3993C38.6926 104.931 38.3981 104.577 38.3981 103.808V39.247C38.3392 38.8331 38.6337 38.4193 39.1048 38.3601C39.1637 38.3601 39.2226 38.3601 39.3404 38.3601H51.6489C51.9433 38.301 52.3556 38.5375 52.3556 38.8922C52.3556 38.9513 52.3556 39.0105 52.3556 39.0696V92.1019H81.4484C82.0962 92.1019 82.2729 92.3976 82.1551 92.9888L80.3294 103.985C80.3294 104.281 80.1528 104.577 79.9761 104.754C79.7405 104.872 79.505 104.931 79.2694 104.931Z" fill="#31A8FF"/>
<path d="M89.3401 54.3821H100.353C101.001 54.3821 101.472 54.796 101.649 55.3872C101.884 55.8011 102.061 56.3332 102.179 56.8653C102.296 57.5156 102.414 58.1659 102.473 58.8163C102.532 59.5257 102.591 60.2943 102.591 61.0629C104.475 58.8754 106.772 57.0426 109.305 55.6237C112.19 54.0274 115.429 53.2588 118.668 53.3771C119.081 53.318 119.493 53.6136 119.552 54.0865C119.552 54.1457 119.552 54.2048 119.552 54.323V66.6795C119.552 67.2116 119.257 67.389 118.551 67.389C114.487 67.1525 110.365 67.9211 106.654 69.5173C105.418 70.1086 104.181 70.818 103.239 71.8822V104.104C103.239 104.754 103.003 104.99 102.414 104.99H90.1646C89.6345 105.05 89.2223 104.754 89.1634 104.222C89.1634 104.163 89.1634 104.045 89.1634 103.985V68.9852C89.1634 67.4481 89.1634 65.9109 89.1045 64.2555C89.0456 62.6001 89.0456 60.9447 88.9867 59.3484C88.9278 57.9295 88.81 56.5697 88.6334 55.1507C88.5745 54.8551 88.7511 54.5004 89.0456 54.4413C89.1634 54.323 89.2223 54.323 89.3401 54.3821Z" fill="#31A8FF"/>
</svg>
