<svg width="18" height="18" viewBox="0 0 18 18" fill="none" xmlns="http://www.w3.org/2000/svg">
<path fill-rule="evenodd" clip-rule="evenodd" d="M16.5 9C16.5 13.1421 13.1421 16.5 9 16.5C4.85786 16.5 1.5 13.1421 1.5 9C1.5 4.85786 4.85786 1.5 9 1.5C13.1421 1.5 16.5 4.85786 16.5 9ZM18 9C18 13.9706 13.9706 18 9 18C4.02944 18 0 13.9706 0 9C0 4.02944 4.02944 0 9 0C13.9706 0 18 4.02944 18 9ZM13.5303 13.0303C13.2374 13.3232 12.7626 13.3232 12.4697 13.0303L9.25 9.81066L6.03033 13.0303C5.73744 13.3232 5.26256 13.3232 4.96967 13.0303C4.67678 12.7374 4.67678 12.2626 4.96967 11.9697L8.18934 8.75L5.46967 6.03033C5.17678 5.73744 5.17678 5.26256 5.46967 4.96967C5.76256 4.67678 6.23744 4.67678 6.53033 4.96967L9.25 7.68934L11.9697 4.96967C12.2626 4.67678 12.7374 4.67678 13.0303 4.96967C13.3232 5.26256 13.3232 5.73744 13.0303 6.03033L10.3107 8.75L13.5303 11.9697C13.8232 12.2626 13.8232 12.7374 13.5303 13.0303Z" fill="white"/>
</svg>
